STARTFONT 2.1
FONT -Monotype-Gill Sans-Bold-I-Normal--10-100-72-72-P-55-iso8859-1
SIZE 10 72 72
FONTBOUNDINGBOX 13 12 -2 -3

STARTPROPERTIES 22
FOUNDRY "Monotype"
FAMILY_NAME "Gill Sans"
WEIGHT_NAME "Bold"
SLANT "I"
SETWIDTH_NAME "Normal"
ADD_STYLE_NAME ""
PIXEL_SIZE 10
POINT_SIZE 100
RESOLUTION_X 72
RESOLUTION_Y 72
SPACING "P"
AVERAGE_WIDTH 55
CHARSET_REGISTRY "iso8859"
CHARSET_ENCODING "1"
COPYRIGHT "Copyright (c) 1996 Monotype Typography Ltd."
CAP_HEIGHT 8
X_HEIGHT 5
WEIGHT 10
QUAD_WIDTH 6
DEFAULT_CHAR 32
FONT_DESCENT 3
FONT_ASCENT 9
ENDPROPERTIES

CHARS 191

STARTCHAR space
ENCODING 32
SWIDTH 278 0
DWIDTH 3 0
BBX 0 0 0 0
BITMAP
ENDCHAR

STARTCHAR exclam
ENCODING 33
SWIDTH 260 0
DWIDTH 3 0
BBX 4 7 0 0
BITMAP
30
30
60
60
00
C0
C0
ENDCHAR

STARTCHAR quotedbl
ENCODING 34
SWIDTH 479 0
DWIDTH 5 0
BBX 3 2 2 5
BITMAP
A0
A0
ENDCHAR

STARTCHAR numbersign
ENCODING 35
SWIDTH 584 0
DWIDTH 6 0
BBX 6 7 1 0
BITMAP
28
28
FC
50
FC
50
50
ENDCHAR

STARTCHAR dollar
ENCODING 36
SWIDTH 490 0
DWIDTH 5 0
BBX 6 9 0 -2
BITMAP
10
38
54
70
38
A8
70
20
20
ENDCHAR

STARTCHAR percent
ENCODING 37
SWIDTH 719 0
DWIDTH 7 0
BBX 6 7 1 0
BITMAP
64
A8
D0
20
2C
54
98
ENDCHAR

STARTCHAR ampersand
ENCODING 38
SWIDTH 729 0
DWIDTH 7 0
BBX 8 7 0 0
BITMAP
0E
16
1C
78
DA
CE
7F
ENDCHAR

STARTCHAR quoteright
ENCODING 39
SWIDTH 260 0
DWIDTH 3 0
BBX 3 3 1 4
BITMAP
60
60
C0
ENDCHAR

STARTCHAR parenleft
ENCODING 40
SWIDTH 344 0
DWIDTH 3 0
BBX 4 9 1 -2
BITMAP
10
20
60
40
C0
C0
C0
40
20
ENDCHAR

STARTCHAR parenright
ENCODING 41
SWIDTH 344 0
DWIDTH 3 0
BBX 4 9 0 -2
BITMAP
40
20
30
30
30
20
60
40
80
ENDCHAR

STARTCHAR asterisk
ENCODING 42
SWIDTH 479 0
DWIDTH 5 0
BBX 4 5 2 2
BITMAP
50
F0
60
F0
50
ENDCHAR

STARTCHAR plus
ENCODING 43
SWIDTH 584 0
DWIDTH 6 0
BBX 5 5 1 1
BITMAP
20
20
F8
20
20
ENDCHAR

STARTCHAR comma
ENCODING 44
SWIDTH 260 0
DWIDTH 3 0
BBX 3 3 -1 -2
BITMAP
60
60
C0
ENDCHAR

STARTCHAR minus
ENCODING 45
SWIDTH 584 0
DWIDTH 6 0
BBX 5 1 1 3
BITMAP
F8
ENDCHAR

STARTCHAR period
ENCODING 46
SWIDTH 260 0
DWIDTH 3 0
BBX 2 2 0 0
BITMAP
C0
C0
ENDCHAR

STARTCHAR slash
ENCODING 47
SWIDTH 281 0
DWIDTH 3 0
BBX 3 7 1 0
BITMAP
20
20
40
40
40
80
80
ENDCHAR

STARTCHAR zero
ENCODING 48
SWIDTH 531 0
DWIDTH 5 0
BBX 5 7 1 0
BITMAP
30
78
48
D8
90
F0
60
ENDCHAR

STARTCHAR one
ENCODING 49
SWIDTH 531 0
DWIDTH 5 0
BBX 4 7 1 0
BITMAP
30
30
60
60
60
C0
C0
ENDCHAR

STARTCHAR two
ENCODING 50
SWIDTH 531 0
DWIDTH 5 0
BBX 6 7 0 0
BITMAP
38
6C
0C
18
30
60
F8
ENDCHAR

STARTCHAR three
ENCODING 51
SWIDTH 531 0
DWIDTH 5 0
BBX 6 7 0 0
BITMAP
38
2C
0C
38
18
D8
70
ENDCHAR

STARTCHAR four
ENCODING 52
SWIDTH 531 0
DWIDTH 5 0
BBX 5 7 1 0
BITMAP
18
38
70
D0
F8
30
30
ENDCHAR

STARTCHAR five
ENCODING 53
SWIDTH 531 0
DWIDTH 5 0
BBX 6 7 0 0
BITMAP
1C
30
60
70
18
D8
70
ENDCHAR

STARTCHAR six
ENCODING 54
SWIDTH 531 0
DWIDTH 5 0
BBX 5 7 0 0
BITMAP
18
30
60
70
D8
D8
70
ENDCHAR

STARTCHAR seven
ENCODING 55
SWIDTH 531 0
DWIDTH 5 0
BBX 5 7 1 0
BITMAP
78
18
30
60
60
C0
C0
ENDCHAR

STARTCHAR eight
ENCODING 56
SWIDTH 531 0
DWIDTH 5 0
BBX 6 7 0 0
BITMAP
38
6C
6C
30
D8
D8
70
ENDCHAR

STARTCHAR nine
ENCODING 57
SWIDTH 531 0
DWIDTH 5 0
BBX 5 7 1 0
BITMAP
70
D8
D8
70
30
60
C0
ENDCHAR

STARTCHAR colon
ENCODING 58
SWIDTH 260 0
DWIDTH 3 0
BBX 3 5 0 0
BITMAP
60
60
00
C0
C0
ENDCHAR

STARTCHAR semicolon
ENCODING 59
SWIDTH 260 0
DWIDTH 3 0
BBX 4 6 -1 -1
BITMAP
30
30
00
60
60
C0
ENDCHAR

STARTCHAR less
ENCODING 60
SWIDTH 584 0
DWIDTH 6 0
BBX 5 5 1 1
BITMAP
18
60
80
60
18
ENDCHAR

STARTCHAR equal
ENCODING 61
SWIDTH 584 0
DWIDTH 6 0
BBX 5 3 1 2
BITMAP
F8
00
F8
ENDCHAR

STARTCHAR greater
ENCODING 62
SWIDTH 584 0
DWIDTH 6 0
BBX 5 5 2 1
BITMAP
C0
30
08
30
C0
ENDCHAR

STARTCHAR question
ENCODING 63
SWIDTH 323 0
DWIDTH 3 0
BBX 4 7 0 0
BITMAP
60
B0
30
60
40
00
C0
ENDCHAR

STARTCHAR at
ENCODING 64
SWIDTH 979 0
DWIDTH 10 0
BBX 9 9 1 -2
BITMAP
3E00
4100
8E80
9480
B480
AC80
9B00
4080
3F00
ENDCHAR

STARTCHAR A
ENCODING 65
SWIDTH 625 0
DWIDTH 6 0
BBX 6 7 0 0
BITMAP
18
18
38
6C
7C
CC
CC
ENDCHAR

STARTCHAR B
ENCODING 66
SWIDTH 635 0
DWIDTH 6 0
BBX 7 7 0 0
BITMAP
3C
36
66
7C
6C
CC
F8
ENDCHAR

STARTCHAR C
ENCODING 67
SWIDTH 688 0
DWIDTH 7 0
BBX 7 7 1 0
BITMAP
3E
60
60
C0
C0
CC
78
ENDCHAR

STARTCHAR D
ENCODING 68
SWIDTH 750 0
DWIDTH 8 0
BBX 8 7 1 0
BITMAP
3E
33
63
63
66
C6
FC
ENDCHAR

STARTCHAR E
ENCODING 69
SWIDTH 583 0
DWIDTH 6 0
BBX 6 7 1 0
BITMAP
3C
30
60
78
60
C0
F8
ENDCHAR

STARTCHAR F
ENCODING 70
SWIDTH 490 0
DWIDTH 5 0
BBX 6 7 1 0
BITMAP
3C
30
60
78
60
C0
C0
ENDCHAR

STARTCHAR G
ENCODING 71
SWIDTH 740 0
DWIDTH 7 0
BBX 7 7 1 0
BITMAP
3E
60
60
C0
DC
CC
78
ENDCHAR

STARTCHAR H
ENCODING 72
SWIDTH 792 0
DWIDTH 8 0
BBX 8 7 1 0
BITMAP
33
33
66
7E
66
CC
CC
ENDCHAR

STARTCHAR I
ENCODING 73
SWIDTH 302 0
DWIDTH 3 0
BBX 4 7 0 0
BITMAP
30
30
60
60
60
C0
C0
ENDCHAR

STARTCHAR J
ENCODING 74
SWIDTH 302 0
DWIDTH 3 0
BBX 6 9 -2 -2
BITMAP
0C
0C
18
18
18
30
30
30
E0
ENDCHAR

STARTCHAR K
ENCODING 75
SWIDTH 646 0
DWIDTH 6 0
BBX 7 7 0 0
BITMAP
36
36
6C
78
78
CC
CC
ENDCHAR

STARTCHAR L
ENCODING 76
SWIDTH 531 0
DWIDTH 5 0
BBX 5 7 0 0
BITMAP
30
30
60
60
60
C0
F8
ENDCHAR

STARTCHAR M
ENCODING 77
SWIDTH 948 0
DWIDTH 9 0
BBX 9 7 0 0
BITMAP
1980
1980
3B80
3F80
6D80
6D80
C980
ENDCHAR

STARTCHAR N
ENCODING 78
SWIDTH 781 0
DWIDTH 8 0
BBX 9 7 0 0
BITMAP
3180
3180
7B00
6B00
6F00
C600
C600
ENDCHAR

STARTCHAR O
ENCODING 79
SWIDTH 833 0
DWIDTH 8 0
BBX 8 7 1 0
BITMAP
3E
63
63
C3
C6
C6
7C
ENDCHAR

STARTCHAR P
ENCODING 80
SWIDTH 583 0
DWIDTH 6 0
BBX 7 7 0 0
BITMAP
3C
36
66
7C
60
C0
C0
ENDCHAR

STARTCHAR Q
ENCODING 81
SWIDTH 833 0
DWIDTH 8 0
BBX 8 9 1 -2
BITMAP
3E
63
63
C3
C6
C6
7C
18
0E
ENDCHAR

STARTCHAR R
ENCODING 82
SWIDTH 646 0
DWIDTH 6 0
BBX 7 7 0 0
BITMAP
3C
36
66
7C
68
CC
CC
ENDCHAR

STARTCHAR S
ENCODING 83
SWIDTH 521 0
DWIDTH 5 0
BBX 6 7 0 0
BITMAP
38
6C
60
30
18
D8
70
ENDCHAR

STARTCHAR T
ENCODING 84
SWIDTH 619 0
DWIDTH 6 0
BBX 6 7 2 0
BITMAP
FC
30
60
60
60
C0
C0
ENDCHAR

STARTCHAR U
ENCODING 85
SWIDTH 750 0
DWIDTH 8 0
BBX 8 7 1 0
BITMAP
33
33
66
66
CC
CC
78
ENDCHAR

STARTCHAR V
ENCODING 86
SWIDTH 552 0
DWIDTH 6 0
BBX 6 7 1 0
BITMAP
CC
CC
D8
D8
70
60
40
ENDCHAR

STARTCHAR W
ENCODING 87
SWIDTH 948 0
DWIDTH 9 0
BBX 9 7 1 0
BITMAP
CD80
CD80
DB00
DB00
7E00
6C00
4800
ENDCHAR

STARTCHAR X
ENCODING 88
SWIDTH 677 0
DWIDTH 7 0
BBX 8 7 0 0
BITMAP
63
66
3C
18
3C
66
C6
ENDCHAR

STARTCHAR Y
ENCODING 89
SWIDTH 563 0
DWIDTH 6 0
BBX 6 7 1 0
BITMAP
CC
CC
D8
70
60
C0
C0
ENDCHAR

STARTCHAR Z
ENCODING 90
SWIDTH 635 0
DWIDTH 6 0
BBX 7 7 0 0
BITMAP
3E
0C
18
10
30
60
F8
ENDCHAR

STARTCHAR bracketleft
ENCODING 91
SWIDTH 375 0
DWIDTH 4 0
BBX 6 9 0 -2
BITMAP
3C
30
30
60
60
60
C0
C0
F0
ENDCHAR

STARTCHAR backslash
ENCODING 92
SWIDTH 281 0
DWIDTH 3 0
BBX 3 7 0 0
BITMAP
80
80
40
40
40
20
20
ENDCHAR

STARTCHAR bracketright
ENCODING 93
SWIDTH 375 0
DWIDTH 4 0
BBX 6 9 -1 -2
BITMAP
3C
0C
0C
18
18
18
30
30
F0
ENDCHAR

STARTCHAR asciicircum
ENCODING 94
SWIDTH 583 0
DWIDTH 6 0
BBX 5 4 1 3
BITMAP
20
50
50
88
ENDCHAR

STARTCHAR underscore
ENCODING 95
SWIDTH 500 0
DWIDTH 5 0
BBX 5 1 0 -2
BITMAP
F8
ENDCHAR

STARTCHAR quoteleft
ENCODING 96
SWIDTH 260 0
DWIDTH 3 0
BBX 3 3 0 4
BITMAP
60
C0
C0
ENDCHAR

STARTCHAR a
ENCODING 97
SWIDTH 552 0
DWIDTH 6 0
BBX 6 5 0 0
BITMAP
3C
6C
CC
D8
78
ENDCHAR

STARTCHAR b
ENCODING 98
SWIDTH 542 0
DWIDTH 5 0
BBX 6 7 0 0
BITMAP
30
30
78
6C
6C
D8
F0
ENDCHAR

STARTCHAR c
ENCODING 99
SWIDTH 469 0
DWIDTH 5 0
BBX 5 5 0 0
BITMAP
38
60
C0
C0
70
ENDCHAR

STARTCHAR d
ENCODING 100
SWIDTH 542 0
DWIDTH 5 0
BBX 6 7 0 0
BITMAP
0C
0C
78
D8
D8
F0
70
ENDCHAR

STARTCHAR e
ENCODING 101
SWIDTH 510 0
DWIDTH 5 0
BBX 5 5 0 0
BITMAP
38
68
F0
C0
70
ENDCHAR

STARTCHAR f
ENCODING 102
SWIDTH 333 0
DWIDTH 3 0
BBX 6 9 -1 -2
BITMAP
1C
30
78
30
60
60
60
C0
C0
ENDCHAR

STARTCHAR g
ENCODING 103
SWIDTH 490 0
DWIDTH 5 0
BBX 6 7 -1 -2
BITMAP
3C
6C
38
60
70
D8
70
ENDCHAR

STARTCHAR h
ENCODING 104
SWIDTH 552 0
DWIDTH 6 0
BBX 6 7 0 0
BITMAP
30
30
78
6C
6C
D8
D8
ENDCHAR

STARTCHAR i
ENCODING 105
SWIDTH 260 0
DWIDTH 3 0
BBX 4 7 0 0
BITMAP
30
00
60
60
60
C0
C0
ENDCHAR

STARTCHAR j
ENCODING 106
SWIDTH 260 0
DWIDTH 3 0
BBX 5 9 -1 -2
BITMAP
18
00
30
30
30
60
60
60
C0
ENDCHAR

STARTCHAR k
ENCODING 107
SWIDTH 509 0
DWIDTH 5 0
BBX 6 7 0 0
BITMAP
30
30
6C
78
70
D8
D8
ENDCHAR

STARTCHAR l
ENCODING 108
SWIDTH 260 0
DWIDTH 3 0
BBX 4 7 0 0
BITMAP
30
30
60
60
60
C0
C0
ENDCHAR

STARTCHAR m
ENCODING 109
SWIDTH 823 0
DWIDTH 8 0
BBX 9 5 0 0
BITMAP
7B00
6D80
6D80
DB00
DB00
ENDCHAR

STARTCHAR n
ENCODING 110
SWIDTH 552 0
DWIDTH 6 0
BBX 6 5 0 0
BITMAP
78
6C
6C
D8
D8
ENDCHAR

STARTCHAR o
ENCODING 111
SWIDTH 563 0
DWIDTH 6 0
BBX 6 5 0 0
BITMAP
38
6C
CC
D8
70
ENDCHAR

STARTCHAR p
ENCODING 112
SWIDTH 583 0
DWIDTH 6 0
BBX 7 8 -1 -2
BITMAP
10
3C
76
36
6C
78
C0
C0
ENDCHAR

STARTCHAR q
ENCODING 113
SWIDTH 552 0
DWIDTH 6 0
BBX 6 7 0 -2
BITMAP
3C
6C
CC
D8
78
30
30
ENDCHAR

STARTCHAR r
ENCODING 114
SWIDTH 365 0
DWIDTH 4 0
BBX 5 5 0 0
BITMAP
68
70
60
C0
C0
ENDCHAR

STARTCHAR s
ENCODING 115
SWIDTH 375 0
DWIDTH 4 0
BBX 5 5 0 0
BITMAP
38
60
70
30
E0
ENDCHAR

STARTCHAR t
ENCODING 116
SWIDTH 365 0
DWIDTH 4 0
BBX 5 6 0 0
BITMAP
30
F8
60
60
C0
E0
ENDCHAR

STARTCHAR u
ENCODING 117
SWIDTH 552 0
DWIDTH 6 0
BBX 6 5 0 0
BITMAP
6C
6C
D8
D8
78
ENDCHAR

STARTCHAR v
ENCODING 118
SWIDTH 458 0
DWIDTH 5 0
BBX 5 5 0 0
BITMAP
D8
D8
70
60
40
ENDCHAR

STARTCHAR w
ENCODING 119
SWIDTH 729 0
DWIDTH 7 0
BBX 8 5 0 0
BITMAP
DB
DB
7E
6C
48
ENDCHAR

STARTCHAR x
ENCODING 120
SWIDTH 531 0
DWIDTH 5 0
BBX 6 5 0 0
BITMAP
6C
38
30
70
D8
ENDCHAR

STARTCHAR y
ENCODING 121
SWIDTH 490 0
DWIDTH 5 0
BBX 6 7 -1 -2
BITMAP
6C
6C
38
30
60
C0
C0
ENDCHAR

STARTCHAR z
ENCODING 122
SWIDTH 458 0
DWIDTH 5 0
BBX 6 5 0 0
BITMAP
3C
18
30
60
F0
ENDCHAR

STARTCHAR braceleft
ENCODING 123
SWIDTH 385 0
DWIDTH 4 0
BBX 3 9 2 -2
BITMAP
20
40
40
40
80
40
40
40
20
ENDCHAR

STARTCHAR bar
ENCODING 124
SWIDTH 281 0
DWIDTH 3 0
BBX 1 9 2 -2
BITMAP
80
80
80
80
80
80
80
80
80
ENDCHAR

STARTCHAR braceright
ENCODING 125
SWIDTH 385 0
DWIDTH 4 0
BBX 3 9 1 -2
BITMAP
80
40
40
40
20
40
40
40
80
ENDCHAR

STARTCHAR asciitilde
ENCODING 126
SWIDTH 584 0
DWIDTH 6 0
BBX 6 2 1 2
BITMAP
64
98
ENDCHAR

STARTCHAR space
ENCODING 160
SWIDTH 278 0
DWIDTH 3 0
BBX 0 0 0 0
BITMAP
ENDCHAR

STARTCHAR exclamdown
ENCODING 161
SWIDTH 260 0
DWIDTH 3 0
BBX 4 7 0 -2
BITMAP
30
30
00
60
60
C0
C0
ENDCHAR

STARTCHAR cent
ENCODING 162
SWIDTH 469 0
DWIDTH 5 0
BBX 5 8 1 -2
BITMAP
10
38
50
D0
E0
70
20
20
ENDCHAR

STARTCHAR sterling
ENCODING 163
SWIDTH 542 0
DWIDTH 5 0
BBX 5 7 0 0
BITMAP
18
30
30
F8
60
60
F8
ENDCHAR

STARTCHAR currency
ENCODING 164
SWIDTH 552 0
DWIDTH 6 0
BBX 4 4 2 1
BITMAP
90
60
60
90
ENDCHAR

STARTCHAR yen
ENCODING 165
SWIDTH 552 0
DWIDTH 6 0
BBX 7 7 1 0
BITMAP
66
66
6C
FC
30
F8
60
ENDCHAR

STARTCHAR brokenbar
ENCODING 166
SWIDTH 281 0
DWIDTH 3 0
BBX 1 9 2 -2
BITMAP
80
80
80
80
00
80
80
80
80
ENDCHAR

STARTCHAR section
ENCODING 167
SWIDTH 552 0
DWIDTH 6 0
BBX 6 9 0 -2
BITMAP
18
24
30
58
48
68
30
90
60
ENDCHAR

STARTCHAR dieresis
ENCODING 168
SWIDTH 333 0
DWIDTH 3 0
BBX 3 1 1 5
BITMAP
A0
ENDCHAR

STARTCHAR copyright
ENCODING 169
SWIDTH 740 0
DWIDTH 7 0
BBX 7 7 1 0
BITMAP
38
44
9A
A2
9A
44
38
ENDCHAR

STARTCHAR ordfeminine
ENCODING 170
SWIDTH 365 0
DWIDTH 4 0
BBX 3 3 1 4
BITMAP
60
A0
E0
ENDCHAR

STARTCHAR guillemotleft
ENCODING 171
SWIDTH 542 0
DWIDTH 5 0
BBX 6 5 0 0
BITMAP
24
48
90
90
48
ENDCHAR

STARTCHAR logicalnot
ENCODING 172
SWIDTH 584 0
DWIDTH 6 0
BBX 5 3 1 2
BITMAP
F8
08
08
ENDCHAR

STARTCHAR hyphen
ENCODING 173
SWIDTH 344 0
DWIDTH 3 0
BBX 3 1 0 2
BITMAP
E0
ENDCHAR

STARTCHAR registered
ENCODING 174
SWIDTH 740 0
DWIDTH 7 0
BBX 7 7 1 0
BITMAP
38
44
BA
B2
AA
44
38
ENDCHAR

STARTCHAR macron
ENCODING 175
SWIDTH 333 0
DWIDTH 3 0
BBX 3 1 2 5
BITMAP
E0
ENDCHAR

STARTCHAR degree
ENCODING 176
SWIDTH 396 0
DWIDTH 4 0
BBX 3 3 1 4
BITMAP
40
A0
40
ENDCHAR

STARTCHAR plusminus
ENCODING 177
SWIDTH 584 0
DWIDTH 6 0
BBX 5 7 1 0
BITMAP
20
20
F8
20
20
00
F8
ENDCHAR

STARTCHAR twosuperior
ENCODING 178
SWIDTH 323 0
DWIDTH 3 0
BBX 3 4 1 3
BITMAP
60
20
40
E0
ENDCHAR

STARTCHAR threesuperior
ENCODING 179
SWIDTH 323 0
DWIDTH 3 0
BBX 3 4 1 3
BITMAP
60
60
20
C0
ENDCHAR

STARTCHAR acute
ENCODING 180
SWIDTH 333 0
DWIDTH 3 0
BBX 2 2 1 5
BITMAP
40
80
ENDCHAR

STARTCHAR mu
ENCODING 181
SWIDTH 615 0
DWIDTH 6 0
BBX 7 7 0 -2
BITMAP
36
36
6C
6C
74
C0
C0
ENDCHAR

STARTCHAR paragraph
ENCODING 182
SWIDTH 552 0
DWIDTH 6 0
BBX 6 9 1 -2
BITMAP
7C
E8
E8
68
28
28
28
28
28
ENDCHAR

STARTCHAR periodcentered
ENCODING 183
SWIDTH 260 0
DWIDTH 3 0
BBX 2 1 1 3
BITMAP
C0
ENDCHAR

STARTCHAR cedilla
ENCODING 184
SWIDTH 333 0
DWIDTH 3 0
BBX 3 3 0 -3
BITMAP
40
60
C0
ENDCHAR

STARTCHAR onesuperior
ENCODING 185
SWIDTH 323 0
DWIDTH 3 0
BBX 2 4 2 3
BITMAP
40
40
80
80
ENDCHAR

STARTCHAR ordmasculine
ENCODING 186
SWIDTH 375 0
DWIDTH 4 0
BBX 3 3 1 4
BITMAP
60
A0
C0
ENDCHAR

STARTCHAR guillemotright
ENCODING 187
SWIDTH 542 0
DWIDTH 5 0
BBX 6 5 0 0
BITMAP
48
24
24
48
90
ENDCHAR

STARTCHAR onequarter
ENCODING 188
SWIDTH 844 0
DWIDTH 8 0
BBX 7 7 1 0
BITMAP
44
48
90
A2
2C
5E
84
ENDCHAR

STARTCHAR onehalf
ENCODING 189
SWIDTH 844 0
DWIDTH 8 0
BBX 7 7 1 0
BITMAP
44
48
50
16
22
44
8E
ENDCHAR

STARTCHAR threequarters
ENCODING 190
SWIDTH 844 0
DWIDTH 8 0
BBX 8 7 1 0
BITMAP
62
64
28
C9
16
2F
42
ENDCHAR

STARTCHAR questiondown
ENCODING 191
SWIDTH 323 0
DWIDTH 3 0
BBX 4 8 0 -2
BITMAP
30
30
00
20
60
C0
D0
60
ENDCHAR

STARTCHAR Agrave
ENCODING 192
SWIDTH 625 0
DWIDTH 6 0
BBX 6 9 0 0
BITMAP
10
08
00
18
38
28
7C
CC
CC
ENDCHAR

STARTCHAR Aacute
ENCODING 193
SWIDTH 625 0
DWIDTH 6 0
BBX 6 9 0 0
BITMAP
04
08
00
18
38
28
7C
CC
CC
ENDCHAR

STARTCHAR Acircumflex
ENCODING 194
SWIDTH 625 0
DWIDTH 6 0
BBX 6 9 0 0
BITMAP
0C
14
00
18
38
28
7C
CC
CC
ENDCHAR

STARTCHAR Atilde
ENCODING 195
SWIDTH 625 0
DWIDTH 6 0
BBX 7 9 0 0
BITMAP
1A
2C
00
18
38
28
7C
CC
CC
ENDCHAR

STARTCHAR Adieresis
ENCODING 196
SWIDTH 625 0
DWIDTH 6 0
BBX 6 8 0 0
BITMAP
14
00
18
38
28
7C
CC
CC
ENDCHAR

STARTCHAR Aring
ENCODING 197
SWIDTH 625 0
DWIDTH 6 0
BBX 6 9 0 0
BITMAP
08
14
08
18
38
28
7C
CC
CC
ENDCHAR

STARTCHAR AE
ENCODING 198
SWIDTH 990 0
DWIDTH 10 0
BBX 10 7 1 0
BITMAP
1FC0
1B00
3600
3780
7C00
CC00
CF80
ENDCHAR

STARTCHAR Ccedilla
ENCODING 199
SWIDTH 688 0
DWIDTH 7 0
BBX 7 10 1 -3
BITMAP
3E
60
60
C0
C0
CC
78
20
30
60
ENDCHAR

STARTCHAR Egrave
ENCODING 200
SWIDTH 583 0
DWIDTH 6 0
BBX 6 9 1 0
BITMAP
10
08
00
3C
30
78
60
C0
F8
ENDCHAR

STARTCHAR Eacute
ENCODING 201
SWIDTH 583 0
DWIDTH 6 0
BBX 6 9 1 0
BITMAP
04
08
00
3C
30
78
60
C0
F8
ENDCHAR

STARTCHAR Ecircumflex
ENCODING 202
SWIDTH 583 0
DWIDTH 6 0
BBX 6 9 1 0
BITMAP
0C
14
00
3C
30
78
60
C0
F8
ENDCHAR

STARTCHAR Edieresis
ENCODING 203
SWIDTH 583 0
DWIDTH 6 0
BBX 6 8 1 0
BITMAP
14
00
3C
30
78
60
C0
F8
ENDCHAR

STARTCHAR Igrave
ENCODING 204
SWIDTH 302 0
DWIDTH 3 0
BBX 4 9 0 0
BITMAP
20
10
00
30
30
60
60
C0
C0
ENDCHAR

STARTCHAR Iacute
ENCODING 205
SWIDTH 302 0
DWIDTH 3 0
BBX 5 9 0 0
BITMAP
08
10
00
30
30
60
60
C0
C0
ENDCHAR

STARTCHAR Icircumflex
ENCODING 206
SWIDTH 302 0
DWIDTH 3 0
BBX 5 9 0 0
BITMAP
18
28
00
30
30
60
60
C0
C0
ENDCHAR

STARTCHAR Idieresis
ENCODING 207
SWIDTH 302 0
DWIDTH 3 0
BBX 5 8 0 0
BITMAP
28
00
30
30
60
60
C0
C0
ENDCHAR

STARTCHAR Eth
ENCODING 208
SWIDTH 750 0
DWIDTH 8 0
BBX 8 7 1 0
BITMAP
3E
33
63
F3
66
C6
FC
ENDCHAR

STARTCHAR Ntilde
ENCODING 209
SWIDTH 781 0
DWIDTH 8 0
BBX 9 9 0 0
BITMAP
0D00
1600
0000
3180
3180
7B00
6F00
C600
C600
ENDCHAR

STARTCHAR Ograve
ENCODING 210
SWIDTH 833 0
DWIDTH 8 0
BBX 8 9 1 0
BITMAP
08
04
00
3E
63
63
C6
C6
7C
ENDCHAR

STARTCHAR Oacute
ENCODING 211
SWIDTH 833 0
DWIDTH 8 0
BBX 8 9 1 0
BITMAP
04
08
00
3E
63
63
C6
C6
7C
ENDCHAR

STARTCHAR Ocircumflex
ENCODING 212
SWIDTH 833 0
DWIDTH 8 0
BBX 8 9 1 0
BITMAP
06
0A
00
3E
63
63
C6
C6
7C
ENDCHAR

STARTCHAR Otilde
ENCODING 213
SWIDTH 833 0
DWIDTH 8 0
BBX 8 9 1 0
BITMAP
0D
16
00
3E
63
63
C6
C6
7C
ENDCHAR

STARTCHAR Odieresis
ENCODING 214
SWIDTH 833 0
DWIDTH 8 0
BBX 8 8 1 0
BITMAP
0A
00
3E
63
63
C6
C6
7C
ENDCHAR

STARTCHAR multiply
ENCODING 215
SWIDTH 584 0
DWIDTH 6 0
BBX 5 5 1 1
BITMAP
88
50
20
50
88
ENDCHAR

STARTCHAR Oslash
ENCODING 216
SWIDTH 833 0
DWIDTH 8 0
BBX 8 7 1 0
BITMAP
3F
67
6B
CB
D6
E6
FC
ENDCHAR

STARTCHAR Ugrave
ENCODING 217
SWIDTH 750 0
DWIDTH 8 0
BBX 8 9 1 0
BITMAP
08
04
00
33
33
66
66
CC
78
ENDCHAR

STARTCHAR Uacute
ENCODING 218
SWIDTH 750 0
DWIDTH 8 0
BBX 8 9 1 0
BITMAP
02
04
00
33
33
66
66
CC
78
ENDCHAR

STARTCHAR Ucircumflex
ENCODING 219
SWIDTH 750 0
DWIDTH 8 0
BBX 8 9 1 0
BITMAP
06
0A
00
33
33
66
66
CC
78
ENDCHAR

STARTCHAR Udieresis
ENCODING 220
SWIDTH 750 0
DWIDTH 8 0
BBX 8 8 1 0
BITMAP
0A
00
33
33
66
66
CC
78
ENDCHAR

STARTCHAR Yacute
ENCODING 221
SWIDTH 563 0
DWIDTH 6 0
BBX 6 9 2 0
BITMAP
08
10
CC
CC
D8
70
60
C0
C0
ENDCHAR

STARTCHAR Thorn
ENCODING 222
SWIDTH 583 0
DWIDTH 6 0
BBX 6 7 0 0
BITMAP
30
30
78
6C
6C
F8
C0
ENDCHAR

STARTCHAR germandbls
ENCODING 223
SWIDTH 552 0
DWIDTH 6 0
BBX 7 7 0 0
BITMAP
1C
32
36
6C
64
CC
D8
ENDCHAR

STARTCHAR agrave
ENCODING 224
SWIDTH 552 0
DWIDTH 6 0
BBX 6 8 0 0
BITMAP
10
08
00
3C
6C
CC
D8
78
ENDCHAR

STARTCHAR aacute
ENCODING 225
SWIDTH 552 0
DWIDTH 6 0
BBX 6 8 0 0
BITMAP
04
08
00
3C
6C
CC
D8
78
ENDCHAR

STARTCHAR acircumflex
ENCODING 226
SWIDTH 552 0
DWIDTH 6 0
BBX 6 8 0 0
BITMAP
0C
14
00
3C
6C
CC
D8
78
ENDCHAR

STARTCHAR atilde
ENCODING 227
SWIDTH 552 0
DWIDTH 6 0
BBX 7 8 0 0
BITMAP
1A
2C
00
3C
6C
CC
D8
78
ENDCHAR

STARTCHAR adieresis
ENCODING 228
SWIDTH 552 0
DWIDTH 6 0
BBX 6 7 0 0
BITMAP
14
00
3C
6C
CC
D8
78
ENDCHAR

STARTCHAR aring
ENCODING 229
SWIDTH 552 0
DWIDTH 6 0
BBX 6 9 0 0
BITMAP
08
14
08
00
3C
6C
CC
D8
78
ENDCHAR

STARTCHAR ae
ENCODING 230
SWIDTH 688 0
DWIDTH 7 0
BBX 7 5 0 0
BITMAP
6E
3A
7C
B0
DC
ENDCHAR

STARTCHAR ccedilla
ENCODING 231
SWIDTH 469 0
DWIDTH 5 0
BBX 5 8 0 -3
BITMAP
38
60
C0
C0
70
20
30
60
ENDCHAR

STARTCHAR egrave
ENCODING 232
SWIDTH 510 0
DWIDTH 5 0
BBX 5 8 1 0
BITMAP
20
10
00
38
68
F0
C0
70
ENDCHAR

STARTCHAR eacute
ENCODING 233
SWIDTH 510 0
DWIDTH 5 0
BBX 5 8 1 0
BITMAP
08
10
00
38
68
F0
C0
70
ENDCHAR

STARTCHAR ecircumflex
ENCODING 234
SWIDTH 510 0
DWIDTH 5 0
BBX 5 8 1 0
BITMAP
18
28
00
38
68
F0
C0
70
ENDCHAR

STARTCHAR edieresis
ENCODING 235
SWIDTH 510 0
DWIDTH 5 0
BBX 5 7 1 0
BITMAP
28
00
38
68
F0
C0
70
ENDCHAR

STARTCHAR igrave
ENCODING 236
SWIDTH 260 0
DWIDTH 3 0
BBX 3 8 0 0
BITMAP
40
20
00
60
60
60
C0
C0
ENDCHAR

STARTCHAR iacute
ENCODING 237
SWIDTH 260 0
DWIDTH 3 0
BBX 4 8 0 0
BITMAP
10
20
00
60
60
60
C0
C0
ENDCHAR

STARTCHAR icircumflex
ENCODING 238
SWIDTH 260 0
DWIDTH 3 0
BBX 4 8 0 0
BITMAP
30
50
00
60
60
60
C0
C0
ENDCHAR

STARTCHAR idieresis
ENCODING 239
SWIDTH 260 0
DWIDTH 3 0
BBX 4 7 0 0
BITMAP
50
00
60
60
60
C0
C0
ENDCHAR

STARTCHAR eth
ENCODING 240
SWIDTH 552 0
DWIDTH 6 0
BBX 6 8 1 0
BITMAP
14
18
2C
3C
6C
CC
D8
70
ENDCHAR

STARTCHAR ntilde
ENCODING 241
SWIDTH 552 0
DWIDTH 6 0
BBX 7 8 0 0
BITMAP
1A
2C
00
78
6C
6C
D8
D8
ENDCHAR

STARTCHAR ograve
ENCODING 242
SWIDTH 563 0
DWIDTH 6 0
BBX 6 8 0 0
BITMAP
20
10
00
38
6C
CC
D8
70
ENDCHAR

STARTCHAR oacute
ENCODING 243
SWIDTH 563 0
DWIDTH 6 0
BBX 6 8 0 0
BITMAP
08
10
00
38
6C
CC
D8
70
ENDCHAR

STARTCHAR ocircumflex
ENCODING 244
SWIDTH 563 0
DWIDTH 6 0
BBX 6 8 0 0
BITMAP
0C
14
00
38
6C
CC
D8
70
ENDCHAR

STARTCHAR otilde
ENCODING 245
SWIDTH 563 0
DWIDTH 6 0
BBX 7 8 0 0
BITMAP
1A
2C
00
38
6C
CC
D8
70
ENDCHAR

STARTCHAR odieresis
ENCODING 246
SWIDTH 563 0
DWIDTH 6 0
BBX 6 7 1 0
BITMAP
28
00
38
6C
CC
D8
70
ENDCHAR

STARTCHAR divide
ENCODING 247
SWIDTH 584 0
DWIDTH 6 0
BBX 5 5 1 1
BITMAP
20
00
F8
00
20
ENDCHAR

STARTCHAR oslash
ENCODING 248
SWIDTH 563 0
DWIDTH 6 0
BBX 6 7 0 -1
BITMAP
04
38
6C
FC
D8
70
80
ENDCHAR

STARTCHAR ugrave
ENCODING 249
SWIDTH 552 0
DWIDTH 6 0
BBX 6 8 1 0
BITMAP
20
10
00
6C
6C
D8
D8
78
ENDCHAR

STARTCHAR uacute
ENCODING 250
SWIDTH 552 0
DWIDTH 6 0
BBX 6 8 1 0
BITMAP
08
10
00
6C
6C
D8
D8
78
ENDCHAR

STARTCHAR ucircumflex
ENCODING 251
SWIDTH 552 0
DWIDTH 6 0
BBX 6 8 1 0
BITMAP
0C
14
00
6C
6C
D8
D8
78
ENDCHAR

STARTCHAR udieresis
ENCODING 252
SWIDTH 552 0
DWIDTH 6 0
BBX 6 7 1 0
BITMAP
14
00
6C
6C
D8
D8
78
ENDCHAR

STARTCHAR yacute
ENCODING 253
SWIDTH 490 0
DWIDTH 5 0
BBX 6 10 0 -2
BITMAP
08
10
00
6C
6C
38
30
60
C0
C0
ENDCHAR

STARTCHAR thorn
ENCODING 254
SWIDTH 583 0
DWIDTH 6 0
BBX 6 9 0 -2
BITMAP
18
18
30
3C
34
6C
78
C0
C0
ENDCHAR

STARTCHAR ydieresis
ENCODING 255
SWIDTH 490 0
DWIDTH 5 0
BBX 6 9 0 -2
BITMAP
28
00
6C
6C
38
30
60
C0
C0
ENDCHAR
ENDFONT
